<svg width="20" height="20" viewBox="0 0 20 20" fill="none" xmlns="http://www.w3.org/2000/svg">
    <path fill-rule="evenodd" clip-rule="evenodd"
        d="M3.33332 8.75002C3.33332 5.76335 5.76332 3.33335 8.74999 3.33335C11.7367 3.33335 14.1667 5.76335 14.1667 8.75002C14.1667 10.2417 13.5608 11.5934 12.5825 12.5742C12.5808 12.575 12.5792 12.5759 12.5775 12.5775C12.5758 12.5784 12.5758 12.5809 12.5742 12.5825C11.5933 13.5609 10.2408 14.1667 8.74999 14.1667C5.76332 14.1667 3.33332 11.7367 3.33332 8.75002ZM14.3067 13.1284C15.26 11.9225 15.8333 10.4034 15.8333 8.75002C15.8333 4.84419 12.6558 1.66669 8.74999 1.66669C4.84416 1.66669 1.66666 4.84419 1.66666 8.75002C1.66666 12.6559 4.84416 15.8334 8.74999 15.8334C10.4025 15.8334 11.9225 15.26 13.1283 14.3067L16.9108 18.0892C17.0733 18.2517 17.2867 18.3334 17.5 18.3334C17.7133 18.3334 17.9267 18.2517 18.0892 18.0892C18.415 17.7634 18.415 17.2367 18.0892 16.9109L14.3067 13.1284Z"
        fill="black" />
    <mask id="mask0" mask-type="alpha" maskUnits="userSpaceOnUse" x="1" y="1" width="18" height="18">
        <path fill-rule="evenodd" clip-rule="evenodd"
            d="M3.33332 8.75002C3.33332 5.76335 5.76332 3.33335 8.74999 3.33335C11.7367 3.33335 14.1667 5.76335 14.1667 8.75002C14.1667 10.2417 13.5608 11.5934 12.5825 12.5742C12.5808 12.575 12.5792 12.5759 12.5775 12.5775C12.5758 12.5784 12.5758 12.5809 12.5742 12.5825C11.5933 13.5609 10.2408 14.1667 8.74999 14.1667C5.76332 14.1667 3.33332 11.7367 3.33332 8.75002ZM14.3067 13.1284C15.26 11.9225 15.8333 10.4034 15.8333 8.75002C15.8333 4.84419 12.6558 1.66669 8.74999 1.66669C4.84416 1.66669 1.66666 4.84419 1.66666 8.75002C1.66666 12.6559 4.84416 15.8334 8.74999 15.8334C10.4025 15.8334 11.9225 15.26 13.1283 14.3067L16.9108 18.0892C17.0733 18.2517 17.2867 18.3334 17.5 18.3334C17.7133 18.3334 17.9267 18.2517 18.0892 18.0892C18.415 17.7634 18.415 17.2367 18.0892 16.9109L14.3067 13.1284Z"
            fill="white" />
    </mask>
    <g mask="url(#mask0)">
        <path fill-rule="evenodd" clip-rule="evenodd" d="M0 0H20V20H0V0Z" fill="#989CAC" />
    </g>
</svg>